<?xml version="1.0" encoding="utf-8"?>
<!-- Generator: Adobe Illustrator 19.0.0, SVG Export Plug-In . SVG Version: 6.00 Build 0)  -->
<svg version="1.1" id="Layer_1" xmlns="http://www.w3.org/2000/svg" xmlns:xlink="http://www.w3.org/1999/xlink" x="0px" y="0px"
	 viewBox="0 0 96 96" style="enable-background:new 0 0 96 96;" xml:space="preserve">
<g id="XMLID_1_">
	<path id="XMLID_3_" d="M66.4,29.7c-1.5,0-2.8,1.2-2.8,2.7v14.5c0,0.6-0.5,1.1-1.2,1.1c-0.6,0-1.2-0.5-1.2-1.1V25.5
		c0-1.5-1.3-2.7-2.8-2.7s-2.8,1.2-2.8,2.7v16.8c0,0.6-0.5,1.1-1.2,1.1c-0.6,0-1.2-0.5-1.2-1.1v-19c0-1.5-1.3-2.7-2.8-2.7
		s-2.8,1.2-2.8,2.7v21.3c0,0.6-0.5,1.1-1.2,1.1s-1.2-0.5-1.2-1.1V27.8c0-1.5-1.3-2.7-2.8-2.7s-2.8,1.2-2.8,2.7v28.9l-3.7-3.1
		c-3.4-3-6.4-4.3-8.8-2.1c-1.6,1.6,0.9,4.1,3.5,7c2.5,2.8,9.3,12.1,15,15.5c0,0,2.2,1.5,5.4,1.5h7.6c6.1,0,10.4-5,10.4-12.3V32.4
		C69.1,30.9,67.9,29.7,66.4,29.7L66.4,29.7z"/>
</g>
</svg>
